<svg xmlns="http://www.w3.org/2000/svg" viewBox="0 0 45.167122 45.167122">
  <defs>
    <clipPath id="a" clipPathUnits="userSpaceOnUse">
      <path fill="#b2b2b2" stroke-width="87.0262" d="M57.000155 6.2700252 6.2700267 56.999795l27.1951323 27.19549 23.455611.079071-27.11586-27.274382 27.195087-27.19511 27.19511 27.19511-27.19511 27.195133-11.76752 11.76752 11.767318 11.767343 50.730175-50.729794z" paint-order="stroke markers fill"/>
    </clipPath>
    <clipPath id="b" clipPathUnits="userSpaceOnUse">
      <path stroke-width=".571427" d="M102.99577-208.60371c5.11011 5.10937 10.22022 10.21875 15.33035 15.32812h3.63169v-3.6317l-15.32813-15.33035h-3.63391v3.63393zm18.96204 3.99553v-7.62946h-7.62723c2.54241 2.54315 5.08482 5.08631 7.62723 7.62946zm10.93527-.81473h10.78794l-5.39286-5.39508c-1.79835 1.79836-3.59672 3.59673-5.39508 5.39508zm-29.89731 12.14732h7.62946c-2.54316-2.54241-5.08631-5.08482-7.62946-7.62723 0 2.54241-.00002 5.08482 0 7.62723zm21.88391-4.13616 2.57143 2.57143h14.86831c.85714-.85714 1.71429-1.71428 2.57143-2.57143-.85714-.8564-1.71429-1.71279-2.57143-2.56919h-14.86831c-.85714.8564-1.71428 1.71279-2.57143 2.56919zm13.40848 13.40849c1.79762-1.79837 3.59525-3.59673 5.39286-5.39509h-10.78794c1.79836 1.79836 3.59673 3.59672 5.39508 5.39509z" paint-order="stroke markers fill"/>
    </clipPath>
  </defs>
  <g clip-path="url(#a)" transform="translate(-2.79124 -2.7912393) scale(.44517)">
    <path fill="#385670" d="m-6 0 6-6 6 6-6 6Zm6 0"/>
    <path fill="#2f4c65" d="m6 0 6-6 6 6-6 6Zm6 0"/>
    <path fill="#273c4f" d="m18 0 6-6 6 6-6 6Zm6 0"/>
    <path fill="#1d3f5e" d="m30 0 6-6 6 6-6 6Zm6 0"/>
    <path fill="#1b2a37" d="m42 0 6-6 6 6-6 6Zm6 0"/>
    <path fill="#32495d" d="m54 0 6-6 6 6-6 6Zm6 0"/>
    <path fill="#2c4154" d="m66 0 6-6 6 6-6 6Zm6 0"/>
    <path fill="#365168" d="m78 0 6-6 6 6-6 6Zm6 0"/>
    <path fill="#24425b" d="m90 0 6-6 6 6-6 6Zm6 0"/>
    <path fill="#1d3449" d="m102 0 6-6 6 6-6 6Zm6 0"/>
    <path fill="#20374c" d="m0 6 6-6 6 6-6 6Zm6 0"/>
    <path fill="#1b354b" d="m12 6 6-6 6 6-6 6Zm6 0"/>
    <path fill="#32597b" d="m24 6 6-6 6 6-6 6Zm6 0"/>
    <path fill="#3b5b78" d="m36 6 6-6 6 6-6 6Zm6 0"/>
    <path fill="#293c4c" d="m48 6 6-6 6 6-6 6Zm6 0"/>
    <path fill="#1b3d5a" d="m60 6 6-6 6 6-6 6Zm6 0"/>
    <path fill="#375168" d="m72 6 6-6 6 6-6 6Zm6 0"/>
    <path fill="#254f74" d="m84 6 6-6 6 6-6 6Zm6 0"/>
    <path fill="#223a4f" d="m96 6 6-6 6 6-6 6Zm6 0"/>
    <path fill="#1e3d57" d="m108 6 6-6 6 6-6 6Zm6 0"/>
    <path fill="#2c577d" d="m-6 12 6-6 6 6-6 6Zm6 0"/>
    <path fill="#274a68" d="m6 12 6-6 6 6-6 6Zm6 0"/>
    <path fill="#283948" d="m18 12 6-6 6 6-6 6Zm6 0"/>
    <path fill="#2b5173" d="m30 12 6-6 6 6-6 6Zm6 0"/>
    <path fill="#284967" d="m42 12 6-6 6 6-6 6Zm6 0"/>
    <path fill="#25425b" d="m54 12 6-6 6 6-6 6Zm6 0"/>
    <path fill="#224d72" d="m66 12 6-6 6 6-6 6Zm6 0"/>
    <path fill="#1f4565" d="m78 12 6-6 6 6-6 6Zm6 0"/>
    <path fill="#2e597f" d="m90 12 6-6 6 6-6 6Zm6 0"/>
    <path fill="#203446" d="m102 12 6-6 6 6-6 6Zm6 0"/>
    <path fill="#273949" d="m0 18 6-6 6 6-6 6Zm6 0"/>
    <path fill="#34516a" d="m12 18 6-6 6 6-6 6Zm6 0"/>
    <path fill="#1c374f" d="m24 18 6-6 6 6-6 6Zm6 0"/>
    <path fill="#28445c" d="m36 18 6-6 6 6-6 6Zm6 0"/>
    <path fill="#203446" d="m48 18 6-6 6 6-6 6Zm6 0"/>
    <path fill="#36536d" d="m60 18 6-6 6 6-6 6Zm6 0"/>
    <path fill="#385670" d="m72 18 6-6 6 6-6 6Zm6 0"/>
    <path fill="#265782" d="m84 18 6-6 6 6-6 6Zm6 0"/>
    <path fill="#1f3f5c" d="m96 18 6-6 6 6-6 6Zm6 0"/>
    <path fill="#304c64" d="m108 18 6-6 6 6-6 6Zm6 0"/>
    <path fill="#2b4c69" d="m-6 24 6-6 6 6-6 6Zm6 0"/>
    <path fill="#203f5b" d="m6 24 6-6 6 6-6 6Zm6 0"/>
    <path fill="#2f516f" d="m18 24 6-6 6 6-6 6Zm6 0"/>
    <path fill="#192a38" d="m30 24 6-6 6 6-6 6Zm6 0"/>
    <path fill="#18354e" d="m42 24 6-6 6 6-6 6Zm6 0"/>
    <path fill="#172d3f" d="m54 24 6-6 6 6-6 6Zm6 0"/>
    <path fill="#324e67" d="m66 24 6-6 6 6-6 6Zm6 0"/>
    <path fill="#203f5a" d="m78 24 6-6 6 6-6 6Zm6 0"/>
    <path fill="#1b2a37" d="m90 24 6-6 6 6-6 6Zm6 0"/>
    <path fill="#1f3c56" d="m102 24 6-6 6 6-6 6Zm6 0"/>
    <path fill="#2a4155" d="m0 30 6-6 6 6-6 6Zm6 0"/>
    <path fill="#142d43" d="m12 30 6-6 6 6-6 6Zm6 0"/>
    <path fill="#213c54" d="m24 30 6-6 6 6-6 6Zm6 0"/>
    <path fill="#2b3e50" d="m36 30 6-6 6 6-6 6Zm6 0"/>
    <path fill="#2d4152" d="m48 30 6-6 6 6-6 6Zm6 0"/>
    <path fill="#2a3c4c" d="m60 30 6-6 6 6-6 6Zm6 0"/>
    <path fill="#213a4f" d="m72 30 6-6 6 6-6 6Zm6 0"/>
    <path fill="#255279" d="m84 30 6-6 6 6-6 6Zm6 0"/>
    <path fill="#21425f" d="m96 30 6-6 6 6-6 6Zm6 0"/>
    <path fill="#2c4c68" d="m108 30 6-6 6 6-6 6Zm6 0"/>
    <path fill="#182a3a" d="m-6 36 6-6 6 6-6 6Zm6 0"/>
    <path fill="#234767" d="m6 36 6-6 6 6-6 6Zm6 0"/>
    <path fill="#30495f" d="m18 36 6-6 6 6-6 6Zm6 0"/>
    <path fill="#18354e" d="m30 36 6-6 6 6-6 6Zm6 0"/>
    <path fill="#324658" d="m42 36 6-6 6 6-6 6Zm6 0"/>
    <path fill="#17354f" d="m54 36 6-6 6 6-6 6Zm6 0"/>
    <path fill="#244765" d="m66 36 6-6 6 6-6 6Zm6 0"/>
    <path fill="#2c475e" d="m78 36 6-6 6 6-6 6Zm6 0"/>
    <path fill="#324e67" d="m90 36 6-6 6 6-6 6Zm6 0"/>
    <path fill="#20374b" d="m102 36 6-6 6 6-6 6Zm6 0"/>
    <path fill="#1f2c37" d="m0 42 6-6 6 6-6 6Zm6 0"/>
    <path fill="#213a4f" d="m12 42 6-6 6 6-6 6Zm6 0"/>
    <path fill="#193248" d="m24 42 6-6 6 6-6 6Zm6 0"/>
    <path fill="#183853" d="m36 42 6-6 6 6-6 6Zm6 0"/>
    <path fill="#234d71" d="m48 42 6-6 6 6-6 6Zm6 0"/>
    <path fill="#213140" d="m60 42 6-6 6 6-6 6Zm6 0"/>
    <path fill="#325677" d="m72 42 6-6 6 6-6 6Zm6 0"/>
    <path fill="#2a547a" d="m84 42 6-6 6 6-6 6Zm6 0"/>
    <path fill="#273745" d="m96 42 6-6 6 6-6 6Zm6 0"/>
    <path fill="#35546e" d="m108 42 6-6 6 6-6 6Zm6 0"/>
    <path fill="#1b354b" d="m-6 48 6-6 6 6-6 6Zm6 0"/>
    <path fill="#30516e" d="m6 48 6-6 6 6-6 6Zm6 0"/>
    <path fill="#2d465d" d="m18 48 6-6 6 6-6 6Zm6 0"/>
    <path fill="#25394b" d="m30 48 6-6 6 6-6 6Zm6 0"/>
    <path fill="#1f374d" d="m42 48 6-6 6 6-6 6Zm6 0"/>
    <path fill="#375167" d="m54 48 6-6 6 6-6 6Zm6 0"/>
    <path fill="#24394c" d="m66 48 6-6 6 6-6 6Zm6 0"/>
    <path fill="#1e3448" d="m78 48 6-6 6 6-6 6Zm6 0"/>
    <path fill="#213a50" d="m90 48 6-6 6 6-6 6Zm6 0"/>
    <path fill="#1c3245" d="m102 48 6-6 6 6-6 6Zm6 0"/>
    <path fill="#2a4c6a" d="m0 54 6-6 6 6-6 6Zm6 0"/>
    <path fill="#2c5c87" d="m12 54 6-6 6 6-6 6Zm6 0"/>
    <path fill="#33516b" d="m24 54 6-6 6 6-6 6Zm6 0"/>
    <path fill="#25394b" d="m36 54 6-6 6 6-6 6Zm6 0"/>
    <path fill="#395b79" d="m48 54 6-6 6 6-6 6Zm6 0"/>
    <path fill="#33516b" d="m60 54 6-6 6 6-6 6Zm6 0"/>
    <path fill="#253746" d="m72 54 6-6 6 6-6 6Zm6 0"/>
    <path fill="#335c80" d="m84 54 6-6 6 6-6 6Zm6 0"/>
    <path fill="#2c3e4e" d="m96 54 6-6 6 6-6 6Zm6 0"/>
    <path fill="#345979" d="m108 54 6-6 6 6-6 6Zm6 0"/>
    <path fill="#142d43" d="m-6 60 6-6 6 6-6 6Zm6 0"/>
    <path fill="#35546e" d="m6 60 6-6 6 6-6 6Zm6 0"/>
    <path fill="#153047" d="m18 60 6-6 6 6-6 6Zm6 0"/>
    <path fill="#193752" d="m30 60 6-6 6 6-6 6Zm6 0"/>
    <path fill="#405b72" d="m42 60 6-6 6 6-6 6Zm6 0"/>
    <path fill="#315c81" d="m54 60 6-6 6 6-6 6Zm6 0"/>
    <path fill="#284967" d="m66 60 6-6 6 6-6 6Zm6 0"/>
    <path fill="#182a3a" d="m78 60 6-6 6 6-6 6Zm6 0"/>
    <path fill="#385975" d="m90 60 6-6 6 6-6 6Zm6 0"/>
    <path fill="#16324b" d="m102 60 6-6 6 6-6 6Zm6 0"/>
    <path fill="#273f54" d="m0 66 6-6 6 6-6 6Zm6 0"/>
    <path fill="#385b7a" d="m12 66 6-6 6 6-6 6Zm6 0"/>
    <path fill="#304c64" d="m24 66 6-6 6 6-6 6Zm6 0"/>
    <path fill="#204565" d="m36 66 6-6 6 6-6 6Zm6 0"/>
    <path fill="#142d43" d="m48 66 6-6 6 6-6 6Zm6 0"/>
    <path fill="#1d4263" d="m60 66 6-6 6 6-6 6Zm6 0"/>
    <path fill="#26557e" d="m72 66 6-6 6 6-6 6Zm6 0"/>
    <path fill="#224768" d="m84 66 6-6 6 6-6 6Zm6 0"/>
    <path fill="#233443" d="m96 66 6-6 6 6-6 6Zm6 0"/>
    <path fill="#385975" d="m108 66 6-6 6 6-6 6Zm6 0"/>
    <path fill="#182a3a" d="m-6 72 6-6 6 6-6 6Zm6 0"/>
    <path fill="#344b60" d="m6 72 6-6 6 6-6 6Zm6 0"/>
    <path fill="#2e4f6b" d="m18 72 6-6 6 6-6 6Zm6 0"/>
    <path fill="#275277" d="m30 72 6-6 6 6-6 6Zm6 0"/>
    <path fill="#1b3246" d="m42 72 6-6 6 6-6 6Zm6 0"/>
    <path fill="#243442" d="m54 72 6-6 6 6-6 6Zm6 0"/>
    <path fill="#1a354c" d="m66 72 6-6 6 6-6 6Zm6 0"/>
    <path fill="#20476a" d="m78 72 6-6 6 6-6 6Zm6 0"/>
    <path fill="#2d4c67" d="m90 72 6-6 6 6-6 6Zm6 0"/>
    <path fill="#3e586f" d="m102 72 6-6 6 6-6 6Zm6 0"/>
    <path fill="#1f4261" d="m0 78 6-6 6 6-6 6Zm6 0"/>
    <path fill="#1a2d3d" d="m12 78 6-6 6 6-6 6Zm6 0"/>
    <path fill="#37536d" d="m24 78 6-6 6 6-6 6Zm6 0"/>
    <path fill="#2f5779" d="m36 78 6-6 6 6-6 6Zm6 0"/>
    <path fill="#31516d" d="m48 78 6-6 6 6-6 6Zm6 0"/>
    <path fill="#2f5779" d="m60 78 6-6 6 6-6 6Zm6 0"/>
    <path fill="#275a86" d="m72 78 6-6 6 6-6 6Zm6 0"/>
    <path fill="#2b577d" d="m84 78 6-6 6 6-6 6Zm6 0"/>
    <path fill="#2b5478" d="m96 78 6-6 6 6-6 6Zm6 0"/>
    <path fill="#264764" d="m108 78 6-6 6 6-6 6Zm6 0"/>
    <path fill="#314659" d="m-6 84 6-6 6 6-6 6Zm6 0"/>
    <path fill="#375c7b" d="m6 84 6-6 6 6-6 6Zm6 0"/>
    <path fill="#33495b" d="m18 84 6-6 6 6-6 6Zm6 0"/>
    <path fill="#182f44" d="m30 84 6-6 6 6-6 6Zm6 0"/>
    <path fill="#20374c" d="m42 84 6-6 6 6-6 6Zm6 0"/>
    <path fill="#33495b" d="m54 84 6-6 6 6-6 6Zm6 0"/>
    <path fill="#233f58" d="m66 84 6-6 6 6-6 6Zm6 0"/>
    <path fill="#214769" d="m78 84 6-6 6 6-6 6Zm6 0"/>
    <path fill="#1f3447" d="m90 84 6-6 6 6-6 6Zm6 0"/>
    <path fill="#1d2a35" d="m102 84 6-6 6 6-6 6Zm6 0"/>
    <path fill="#324658" d="m0 90 6-6 6 6-6 6Zm6 0"/>
    <path fill="#203c56" d="m12 90 6-6 6 6-6 6Zm6 0"/>
    <path fill="#3a5369" d="m24 90 6-6 6 6-6 6Zm6 0"/>
    <path fill="#405b72" d="m36 90 6-6 6 6-6 6Zm6 0"/>
    <path fill="#2e4457" d="m48 90 6-6 6 6-6 6Zm6 0"/>
    <path fill="#375672" d="m60 90 6-6 6 6-6 6Zm6 0"/>
    <path fill="#295c89" d="m72 90 6-6 6 6-6 6Zm6 0"/>
    <path fill="#122a3f" d="m84 90 6-6 6 6-6 6Zm6 0"/>
    <path fill="#24394c" d="m96 90 6-6 6 6-6 6Zm6 0"/>
    <path fill="#24425c" d="m108 90 6-6 6 6-6 6Zm6 0"/>
    <path fill="#2e577a" d="m-6 96 6-6 6 6-6 6Zm6 0"/>
    <path fill="#2c5172" d="m6 96 6-6 6 6-6 6Zm6 0"/>
    <path fill="#1b3a55" d="m18 96 6-6 6 6-6 6Zm6 0"/>
    <path fill="#163046" d="m30 96 6-6 6 6-6 6Zm6 0"/>
    <path fill="#1d3244" d="m42 96 6-6 6 6-6 6Zm6 0"/>
    <path fill="#24394c" d="m54 96 6-6 6 6-6 6Zm6 0"/>
    <path fill="#354e64" d="m66 96 6-6 6 6-6 6Zm6 0"/>
    <path fill="#1d3a53" d="m78 96 6-6 6 6-6 6Zm6 0"/>
    <path fill="#2b577d" d="m90 96 6-6 6 6-6 6Zm6 0"/>
    <path fill="#243c52" d="m102 96 6-6 6 6-6 6Zm6 0"/>
    <path fill="#3e5b75" d="m0 102 6-6 6 6-6 6Zm6 0"/>
    <path fill="#2d4153" d="m12 102 6-6 6 6-6 6Zm6 0"/>
    <path fill="#213a50" d="m24 102 6-6 6 6-6 6Zm6 0"/>
    <path fill="#243c52" d="m36 102 6-6 6 6-6 6Zm6 0"/>
    <path fill="#172f44" d="m48 102 6-6 6 6-6 6Zm6 0"/>
    <path fill="#30597e" d="m60 102 6-6 6 6-6 6Zm6 0"/>
    <path fill="#2b3e4f" d="m72 102 6-6 6 6-6 6Zm6 0"/>
    <path fill="#375976" d="m84 102 6-6 6 6-6 6Zm6 0"/>
    <path fill="#1c3f5e" d="m96 102 6-6 6 6-6 6Zm6 0"/>
    <path fill="#3b5972" d="m108 102 6-6 6 6-6 6Zm6 0"/>
    <path fill="#193752" d="m-6 108 6-6 6 6-6 6Zm6 0"/>
    <path fill="#253f56" d="m6 108 6-6 6 6-6 6Zm6 0"/>
    <path fill="#2e5c85" d="m18 108 6-6 6 6-6 6Zm6 0"/>
    <path fill="#192f43" d="m30 108 6-6 6 6-6 6Zm6 0"/>
    <path fill="#284762" d="m42 108 6-6 6 6-6 6Zm6 0"/>
    <path fill="#1c3f5e" d="m54 108 6-6 6 6-6 6Zm6 0"/>
    <path fill="#264c6e" d="m66 108 6-6 6 6-6 6Zm6 0"/>
    <path fill="#1b3750" d="m78 108 6-6 6 6-6 6Zm6 0"/>
    <path fill="#1e3243" d="m90 108 6-6 6 6-6 6Zm6 0"/>
    <path fill="#24527a" d="m102 108 6-6 6 6-6 6Zm6 0"/>
    <path fill="#2f4960" d="m0 114 6-6 6 6-6 6Zm6 0"/>
    <path fill="#284f71" d="m12 114 6-6 6 6-6 6Zm6 0"/>
    <path fill="#1d3a53" d="m24 114 6-6 6 6-6 6Zm6 0"/>
    <path fill="#28547b" d="m36 114 6-6 6 6-6 6Zm6 0"/>
    <path fill="#295a85" d="m48 114 6-6 6 6-6 6Zm6 0"/>
    <path fill="#335470" d="m60 114 6-6 6 6-6 6Zm6 0"/>
    <path fill="#193752" d="m72 114 6-6 6 6-6 6Zm6 0"/>
    <path fill="#365c7c" d="m84 114 6-6 6 6-6 6Zm6 0"/>
    <path fill="#2e4456" d="m96 114 6-6 6 6-6 6Zm6 0"/>
    <path fill="#162a3c" d="m108 114 6-6 6 6-6 6Zm6 0"/>
  </g>
  <path fill="#b2b2b2" d="M2.97656 8.5519307v4.6772403l14.0317 14.0317h4.67724v-4.67723L7.65379 8.5519307ZM21.6855 22.583641l3.30729 3.30729h13.89062l3.30729-3.30729-3.30729-3.3073H24.99279ZM11.39568 8.5519307 21.6855 18.841741V8.5519307Zm23.51898.80254-7.27604 7.2760403H42.1907ZM2.97656 16.971061v10.28981h10.29033zm24.66206 11.5657 7.27604 7.27604 7.27604-7.27604z" paint-order="stroke markers fill"/>
  <g clip-path="url(#b)" transform="matrix(.875 0 0 .875 -86.086578 195.31801)">
    <path fill="#b2b2b2" d="M79.77635567-227.84300775v25.39999968h44.44999944v-25.39999968h-22.22499972z" paint-order="stroke markers fill"/>
    <path fill="#ccc" fill-rule="evenodd" d="M79.77635567-227.84300775v1.58749998h3.17499996v-1.58749998zm11.11249986 0v1.58749998h3.17499996v-1.58749998zm3.70416662 0v1.58749998h3.17499996v-1.58749998zm3.70416662 0v1.58749998h3.1755159v-1.58749998zm3.70416662 0v1.58749998h3.17499996v-1.58749998zm11.11249986 0v1.58749998h3.17499996v-1.58749998zm3.70416662 0v1.58749998h3.17499996v-1.58749998zm3.70416662 0v1.58749998h3.1755159v-1.58749998zm-40.74583282 2.11666664v1.58749998h3.17499996v-1.58749998zm3.70416662 0v1.58749998h3.17499996v-1.58749998zm3.70416662 0v1.58749998h3.17499996v-1.58749998zm3.70416662 0v1.58749998h3.17499996v-1.58749998zm3.70416662 0v1.58749998h3.17499996v-1.58749998zm7.40833324 0v1.58749998h3.17499996v-1.58749998zm3.70416662 0v1.58749998h3.17499996v-1.58749998zm3.70416662 0v1.58749998h3.17499996v-1.58749998zm3.70416662 0v1.58749998h3.17499996v-1.58749998zm3.70416662 0v1.58749998h3.17499996v-1.58749998zm-33.33749958 2.11666664v1.58749998h3.17499996v-1.58749998zm3.70416662 0v1.58749998h3.17499996v-1.58749998zm7.40833324 0v1.58749998h3.17499996v-1.58749998zm3.70416662 0v1.58749998h3.1755159v-1.58749998zm7.40833324 0v1.58749998h3.17499996v-1.58749998zm3.70416662 0v1.58749998h3.17499996v-1.58749998zm7.40833324 0v1.58749998h3.17499996v-1.58749998zm3.70416662 0v1.58749998h3.1755159v-1.58749998zm-40.74583282 2.11666664v1.58749998h3.17499996v-1.58749998zm3.70416662 0v1.58749998h3.17499996v-1.58749998zm7.40833324 0v1.58749998h3.17499996v-1.58749998zm3.70416662 0v1.58749998h3.17499996v-1.58749998zm7.40833324 0v1.58749998h3.17499996v-1.58749998zm3.70416662 0v1.58749998h3.17499996v-1.58749998zm7.40833324 0v1.58749998h3.17499996v-1.58749998zm3.70416662 0v1.58749998h3.17499996v-1.58749998zm-37.0416662 2.11666664v1.58749998h3.17499996v-1.58749998zm3.70416662 0v1.58749998h3.17499996v-1.58749998zm3.70416662 0v1.58749998h3.17499996v-1.58749998zm7.40833324 0v1.58749998h3.17499996v-1.58749998zm3.70416662 0v1.58749998h3.1755159v-1.58749998zm3.70416662 0v1.58749998h3.17499996v-1.58749998zm3.70416662 0v1.58749998h3.17499996v-1.58749998zm3.70416662 0v1.58749998h3.17499996v-1.58749998zm7.40833324 0v1.58749998h3.17499996v-1.58749998zm3.70416662 0v1.58749998h3.1755159v-1.58749998zm-37.0416662 2.11666664v1.58749998h3.17499996v-1.58749998zm3.70416662 0v1.58749998h3.17499996v-1.58749998zm3.70416662 0v1.58749998h3.17499996v-1.58749998zm7.40833324 0v1.58749998h3.1755159v-1.58749998zm7.40833324 0v1.58749998h3.17499996v-1.58749998zm3.70416662 0v1.58749998h3.17499996v-1.58749998zm3.70416662 0v1.58749998h3.17499996v-1.58749998zm7.40833324 0v1.58749998h3.1755159v-1.58749998zm-40.74583282 2.11666664v1.58749998h3.17499996v-1.58749998zm11.11249986 0v1.58749998h3.17499996v-1.58749998zm3.70416662 0v1.58749998h3.17499996v-1.58749998zm3.70416662 0v1.58749998h3.1755159v-1.58749998zm3.70416662 0v1.58749998h3.17499996v-1.58749998zm11.11249986 0v1.58749998h3.17499996v-1.58749998zm3.70416662 0v1.58749998h3.17499996v-1.58749998zm3.70416662 0v1.58749998h3.1755159v-1.58749998zm-40.74583282 2.11666664v1.58749998h3.17499996v-1.58749998zm3.70416662 0v1.58749998h3.17499996v-1.58749998zm3.70416662 0v1.58749998h3.17499996v-1.58749998zm3.70416662 0v1.58749998h3.17499996v-1.58749998zm3.70416662 0v1.58749998h3.17499996v-1.58749998zm7.40833324 0v1.58749998h3.17499996v-1.58749998zm3.70416662 0v1.58749998h3.17499996v-1.58749998zm3.70416662 0v1.58749998h3.17499996v-1.58749998zm3.70416662 0v1.58749998h3.17499996v-1.58749998zm3.70416662 0v1.58749998h3.17499996v-1.58749998zm-33.33749958 2.11666664v1.58749998h3.17499996v-1.58749998zm3.70416662 0v1.58749998h3.17499996v-1.58749998zm7.40833324 0v1.58749998h3.17499996v-1.58749998zm3.70416662 0v1.58749998h3.1755159v-1.58749998zm7.40833324 0v1.58749998h3.17499996v-1.58749998zm3.70416662 0v1.58749998h3.17499996v-1.58749998zm7.40833324 0v1.58749998h3.17499996v-1.58749998zm3.70416662 0v1.58749998h3.1755159v-1.58749998zm-40.74583282 2.11666664v1.58749998h3.17499996v-1.58749998zm3.70416662 0v1.58749998h3.17499996v-1.58749998zm7.40833324 0v1.58749998h3.17499996v-1.58749998zm3.70416662 0v1.58749998h3.17499996v-1.58749998zm7.40833324 0v1.58749998h3.17499996v-1.58749998zm3.70416662 0v1.58749998h3.17499996v-1.58749998zm7.40833324 0v1.58749998h3.17499996v-1.58749998zm3.70416662 0v1.58749998h3.17499996v-1.58749998Zm-37.0416662 2.11666664v1.58749998h3.17499996v-1.58749998Zm3.70416662 0v1.58749998h3.17499996v-1.58749998Zm3.70416662 0v1.58749998h3.17499996v-1.58749998Zm7.40833324 0v1.58749998h3.17499996v-1.58749998Zm3.70416662 0v1.58749998h3.1755159v-1.58749998Zm3.70416662 0v1.58749998h3.17499996v-1.58749998Zm3.70416662 0v1.58749998h3.17499996v-1.58749998Zm3.70416662 0v1.58749998h3.17499996v-1.58749998Zm7.40833324 0v1.58749998h3.17499996v-1.58749998Zm3.70416662 0v1.58749998h3.1755159v-1.58749998Zm-37.0416662 2.11666664v1.58749998h3.17499996v-1.58749998zm3.70416662 0v1.58749998h3.17499996v-1.58749998zm3.70416662 0v1.58749998h3.17499996v-1.58749998zm7.40833324 0v1.58749998h3.1755159v-1.58749998zm7.40833324 0v1.58749998h3.17499996v-1.58749998zm3.70416662 0v1.58749998h3.17499996v-1.58749998zm3.70416662 0v1.58749998h3.17499996v-1.58749998zm7.40833324 0v1.58749998h3.1755159v-1.58749998z"/>
    <path fill="#b2b2b2" d="M79.77635567-202.44299475v25.39999968h44.44999944v-25.39999968h-22.22499972z" paint-order="stroke markers fill"/>
    <path fill="#ccc" fill-rule="evenodd" d="M79.77635567-202.44299475v1.58749998h3.17499996v-1.58749998zm11.11249986 0v1.58749998h3.17499996v-1.58749998zm3.70416662 0v1.58749998h3.17499996v-1.58749998zm3.70416662 0v1.58749998h3.1755159v-1.58749998zm3.70416662 0v1.58749998h3.17499996v-1.58749998zm11.11249986 0v1.58749998h3.17499996v-1.58749998zm3.70416662 0v1.58749998h3.17499996v-1.58749998zm3.70416662 0v1.58749998h3.1755159v-1.58749998zm-40.74583282 2.11666664v1.58749998h3.17499996v-1.58749998zm3.70416662 0v1.58749998h3.17499996v-1.58749998zm3.70416662 0v1.58749998h3.17499996v-1.58749998zm3.70416662 0v1.58749998h3.17499996v-1.58749998zm3.70416662 0v1.58749998h3.17499996v-1.58749998zm7.40833324 0v1.58749998h3.17499996v-1.58749998zm3.70416662 0v1.58749998h3.17499996v-1.58749998zm3.70416662 0v1.58749998h3.17499996v-1.58749998zm3.70416662 0v1.58749998h3.17499996v-1.58749998zm3.70416662 0v1.58749998h3.17499996v-1.58749998zm-33.33749958 2.11666664v1.58749998h3.17499996v-1.58749998zm3.70416662 0v1.58749998h3.17499996v-1.58749998zm7.40833324 0v1.58749998h3.17499996v-1.58749998zm3.70416662 0v1.58749998h3.1755159v-1.58749998zm7.40833324 0v1.58749998h3.17499996v-1.58749998zm3.70416662 0v1.58749998h3.17499996v-1.58749998zm7.40833324 0v1.58749998h3.17499996v-1.58749998zm3.70416662 0v1.58749998h3.1755159v-1.58749998zm-40.74583282 2.11666664v1.58749998h3.17499996v-1.58749998zm3.70416662 0v1.58749998h3.17499996v-1.58749998zm7.40833324 0v1.58749998h3.17499996v-1.58749998zm3.70416662 0v1.58749998h3.17499996v-1.58749998zm7.40833324 0v1.58749998h3.17499996v-1.58749998zm3.70416662 0v1.58749998h3.17499996v-1.58749998zm7.40833324 0v1.58749998h3.17499996v-1.58749998zm3.70416662 0v1.58749998h3.17499996v-1.58749998zm-37.0416662 2.11666664v1.58749998h3.17499996v-1.58749998zm3.70416662 0v1.58749998h3.17499996v-1.58749998zm3.70416662 0v1.58749998h3.17499996v-1.58749998zm7.40833324 0v1.58749998h3.17499996v-1.58749998zm3.70416662 0v1.58749998h3.1755159v-1.58749998zm3.70416662 0v1.58749998h3.17499996v-1.58749998zm3.70416662 0v1.58749998h3.17499996v-1.58749998zm3.70416662 0v1.58749998h3.17499996v-1.58749998zm7.40833324 0v1.58749998h3.17499996v-1.58749998zm3.70416662 0v1.58749998h3.1755159v-1.58749998zm-37.0416662 2.11666664v1.58749998h3.17499996v-1.58749998zm3.70416662 0v1.58749998h3.17499996v-1.58749998zm3.70416662 0v1.58749998h3.17499996v-1.58749998zm7.40833324 0v1.58749998h3.1755159v-1.58749998zm7.40833324 0v1.58749998h3.17499996v-1.58749998zm3.70416662 0v1.58749998h3.17499996v-1.58749998zm3.70416662 0v1.58749998h3.17499996v-1.58749998zm7.40833324 0v1.58749998h3.1755159v-1.58749998zm-40.74583282 2.11666664v1.58749998h3.17499996v-1.58749998zm11.11249986 0v1.58749998h3.17499996v-1.58749998zm3.70416662 0v1.58749998h3.17499996v-1.58749998zm3.70416662 0v1.58749998h3.1755159v-1.58749998zm3.70416662 0v1.58749998h3.17499996v-1.58749998zm11.11249986 0v1.58749998h3.17499996v-1.58749998zm3.70416662 0v1.58749998h3.17499996v-1.58749998zm3.70416662 0v1.58749998h3.1755159v-1.58749998zm-40.74583282 2.11666664v1.58749998h3.17499996v-1.58749998zm3.70416662 0v1.58749998h3.17499996v-1.58749998zm3.70416662 0v1.58749998h3.17499996v-1.58749998zm3.70416662 0v1.58749998h3.17499996v-1.58749998zm3.70416662 0v1.58749998h3.17499996v-1.58749998zm7.40833324 0v1.58749998h3.17499996v-1.58749998zm3.70416662 0v1.58749998h3.17499996v-1.58749998zm3.70416662 0v1.58749998h3.17499996v-1.58749998zm3.70416662 0v1.58749998h3.17499996v-1.58749998zm3.70416662 0v1.58749998h3.17499996v-1.58749998zm-33.33749958 2.11666664v1.58749998h3.17499996v-1.58749998zm3.70416662 0v1.58749998h3.17499996v-1.58749998zm7.40833324 0v1.58749998h3.17499996v-1.58749998zm3.70416662 0v1.58749998h3.1755159v-1.58749998zm7.40833324 0v1.58749998h3.17499996v-1.58749998zm3.70416662 0v1.58749998h3.17499996v-1.58749998zm7.40833324 0v1.58749998h3.17499996v-1.58749998zm3.70416662 0v1.58749998h3.1755159v-1.58749998zm-40.74583282 2.11666664v1.58749998h3.17499996v-1.58749998zm3.70416662 0v1.58749998h3.17499996v-1.58749998zm7.40833324 0v1.58749998h3.17499996v-1.58749998zm3.70416662 0v1.58749998h3.17499996v-1.58749998zm7.40833324 0v1.58749998h3.17499996v-1.58749998zm3.70416662 0v1.58749998h3.17499996v-1.58749998zm7.40833324 0v1.58749998h3.17499996v-1.58749998zm3.70416662 0v1.58749998h3.17499996v-1.58749998Zm-37.0416662 2.11666664v1.58749998h3.17499996v-1.58749998Zm3.70416662 0v1.58749998h3.17499996v-1.58749998Zm3.70416662 0v1.58749998h3.17499996v-1.58749998Zm7.40833324 0v1.58749998h3.17499996v-1.58749998Zm3.70416662 0v1.58749998h3.1755159v-1.58749998Zm3.70416662 0v1.58749998h3.17499996v-1.58749998Zm3.70416662 0v1.58749998h3.17499996v-1.58749998Zm3.70416662 0v1.58749998h3.17499996v-1.58749998Zm7.40833324 0v1.58749998h3.17499996v-1.58749998Zm3.70416662 0v1.58749998h3.1755159v-1.58749998Zm-37.0416662 2.11666664v1.58749998h3.17499996v-1.58749998zm3.70416662 0v1.58749998h3.17499996v-1.58749998zm3.70416662 0v1.58749998h3.17499996v-1.58749998zm7.40833324 0v1.58749998h3.1755159v-1.58749998zm7.40833324 0v1.58749998h3.17499996v-1.58749998zm3.70416662 0v1.58749998h3.17499996v-1.58749998zm3.70416662 0v1.58749998h3.17499996v-1.58749998zm7.40833324 0v1.58749998h3.1755159v-1.58749998z"/>
    <path fill="#b2b2b2" d="M124.22636367-202.44299775v25.39999968h44.44999944v-25.39999968h-22.22499972z" paint-order="stroke markers fill"/>
    <path fill="#ccc" fill-rule="evenodd" d="M124.22636367-202.44299775v1.58749998h3.17499996v-1.58749998zm11.11249986 0v1.58749998h3.17499996v-1.58749998zm3.70416662 0v1.58749998h3.17499996v-1.58749998zm3.70416662 0v1.58749998h3.1755159v-1.58749998zm3.70416662 0v1.58749998h3.17499996v-1.58749998zm11.11249986 0v1.58749998h3.17499996v-1.58749998zm3.70416662 0v1.58749998h3.17499996v-1.58749998zm3.70416662 0v1.58749998h3.1755159v-1.58749998zm-40.74583282 2.11666664v1.58749998h3.17499996v-1.58749998zm3.70416662 0v1.58749998h3.17499996v-1.58749998zm3.70416662 0v1.58749998h3.17499996v-1.58749998zm3.70416662 0v1.58749998h3.17499996v-1.58749998zm3.70416662 0v1.58749998h3.17499996v-1.58749998zm7.40833324 0v1.58749998h3.17499996v-1.58749998zm3.70416662 0v1.58749998h3.17499996v-1.58749998zm3.70416662 0v1.58749998h3.17499996v-1.58749998zm3.70416662 0v1.58749998h3.17499996v-1.58749998zm3.70416662 0v1.58749998h3.17499996v-1.58749998zm-33.33749958 2.11666664v1.58749998h3.17499996v-1.58749998zm3.70416662 0v1.58749998h3.17499996v-1.58749998zm7.40833324 0v1.58749998h3.17499996v-1.58749998zm3.70416662 0v1.58749998h3.1755159v-1.58749998zm7.40833324 0v1.58749998h3.17499996v-1.58749998zm3.70416662 0v1.58749998h3.17499996v-1.58749998zm7.40833324 0v1.58749998h3.17499996v-1.58749998zm3.70416662 0v1.58749998h3.1755159v-1.58749998zm-40.74583282 2.11666664v1.58749998h3.17499996v-1.58749998zm3.70416662 0v1.58749998h3.17499996v-1.58749998zm7.40833324 0v1.58749998h3.17499996v-1.58749998zm3.70416662 0v1.58749998h3.17499996v-1.58749998zm7.40833324 0v1.58749998h3.17499996v-1.58749998zm3.70416662 0v1.58749998h3.17499996v-1.58749998zm7.40833324 0v1.58749998h3.17499996v-1.58749998zm3.70416662 0v1.58749998h3.17499996v-1.58749998zm-37.0416662 2.11666664v1.58749998h3.17499996v-1.58749998zm3.70416662 0v1.58749998h3.17499996v-1.58749998zm3.70416662 0v1.58749998h3.17499996v-1.58749998zm7.40833324 0v1.58749998h3.17499996v-1.58749998zm3.70416662 0v1.58749998h3.1755159v-1.58749998zm3.70416662 0v1.58749998h3.17499996v-1.58749998zm3.70416662 0v1.58749998h3.17499996v-1.58749998zm3.70416662 0v1.58749998h3.17499996v-1.58749998zm7.40833324 0v1.58749998h3.17499996v-1.58749998zm3.70416662 0v1.58749998h3.1755159v-1.58749998zm-37.0416662 2.11666664v1.58749998h3.17499996v-1.58749998zm3.70416662 0v1.58749998h3.17499996v-1.58749998zm3.70416662 0v1.58749998h3.17499996v-1.58749998zm7.40833324 0v1.58749998h3.1755159v-1.58749998zm7.40833324 0v1.58749998h3.17499996v-1.58749998zm3.70416662 0v1.58749998h3.17499996v-1.58749998zm3.70416662 0v1.58749998h3.17499996v-1.58749998zm7.40833324 0v1.58749998h3.1755159v-1.58749998zm-40.74583282 2.11666664v1.58749998h3.17499996v-1.58749998zm11.11249986 0v1.58749998h3.17499996v-1.58749998zm3.70416662 0v1.58749998h3.17499996v-1.58749998zm3.70416662 0v1.58749998h3.1755159v-1.58749998zm3.70416662 0v1.58749998h3.17499996v-1.58749998zm11.11249986 0v1.58749998h3.17499996v-1.58749998zm3.70416662 0v1.58749998h3.17499996v-1.58749998zm3.70416662 0v1.58749998h3.1755159v-1.58749998zm-40.74583282 2.11666664v1.58749998h3.17499996v-1.58749998zm3.70416662 0v1.58749998h3.17499996v-1.58749998zm3.70416662 0v1.58749998h3.17499996v-1.58749998zm3.70416662 0v1.58749998h3.17499996v-1.58749998zm3.70416662 0v1.58749998h3.17499996v-1.58749998zm7.40833324 0v1.58749998h3.17499996v-1.58749998zm3.70416662 0v1.58749998h3.17499996v-1.58749998zm3.70416662 0v1.58749998h3.17499996v-1.58749998zm3.70416662 0v1.58749998h3.17499996v-1.58749998zm3.70416662 0v1.58749998h3.17499996v-1.58749998zm-33.33749958 2.11666664v1.58749998h3.17499996v-1.58749998zm3.70416662 0v1.58749998h3.17499996v-1.58749998zm7.40833324 0v1.58749998h3.17499996v-1.58749998zm3.70416662 0v1.58749998h3.1755159v-1.58749998zm7.40833324 0v1.58749998h3.17499996v-1.58749998zm3.70416662 0v1.58749998h3.17499996v-1.58749998zm7.40833324 0v1.58749998h3.17499996v-1.58749998zm3.70416662 0v1.58749998h3.1755159v-1.58749998zm-40.74583282 2.11666664v1.58749998h3.17499996v-1.58749998zm3.70416662 0v1.58749998h3.17499996v-1.58749998zm7.40833324 0v1.58749998h3.17499996v-1.58749998zm3.70416662 0v1.58749998h3.17499996v-1.58749998zm7.40833324 0v1.58749998h3.17499996v-1.58749998zm3.70416662 0v1.58749998h3.17499996v-1.58749998zm7.40833324 0v1.58749998h3.17499996v-1.58749998zm3.70416662 0v1.58749998h3.17499996v-1.58749998Zm-37.0416662 2.11666664v1.58749998h3.17499996v-1.58749998Zm3.70416662 0v1.58749998h3.17499996v-1.58749998Zm3.70416662 0v1.58749998h3.17499996v-1.58749998Zm7.40833324 0v1.58749998h3.17499996v-1.58749998Zm3.70416662 0v1.58749998h3.1755159v-1.58749998Zm3.70416662 0v1.58749998h3.17499996v-1.58749998Zm3.70416662 0v1.58749998h3.17499996v-1.58749998Zm3.70416662 0v1.58749998h3.17499996v-1.58749998Zm7.40833324 0v1.58749998h3.17499996v-1.58749998Zm3.70416662 0v1.58749998h3.1755159v-1.58749998Zm-37.0416662 2.11666664v1.58749998h3.17499996v-1.58749998zm3.70416662 0v1.58749998h3.17499996v-1.58749998zm3.70416662 0v1.58749998h3.17499996v-1.58749998zm7.40833324 0v1.58749998h3.1755159v-1.58749998zm7.40833324 0v1.58749998h3.17499996v-1.58749998zm3.70416662 0v1.58749998h3.17499996v-1.58749998zm3.70416662 0v1.58749998h3.17499996v-1.58749998zm7.40833324 0v1.58749998h3.1755159v-1.58749998z"/>
    <path fill="#b2b2b2" d="M124.22635467-227.84300775v25.39999968h44.44999944v-25.39999968h-22.22499972z" paint-order="stroke markers fill"/>
    <path fill="#ccc" fill-rule="evenodd" d="M124.22635467-227.84300775v1.58749998h3.17499996v-1.58749998zm11.11249986 0v1.58749998h3.17499996v-1.58749998zm3.70416662 0v1.58749998h3.17499996v-1.58749998zm3.70416662 0v1.58749998h3.1755159v-1.58749998zm3.70416662 0v1.58749998h3.17499996v-1.58749998zm11.11249986 0v1.58749998h3.17499996v-1.58749998zm3.70416662 0v1.58749998h3.17499996v-1.58749998zm3.70416662 0v1.58749998h3.1755159v-1.58749998zm-40.74583282 2.11666664v1.58749998h3.17499996v-1.58749998zm3.70416662 0v1.58749998h3.17499996v-1.58749998zm3.70416662 0v1.58749998h3.17499996v-1.58749998zm3.70416662 0v1.58749998h3.17499996v-1.58749998zm3.70416662 0v1.58749998h3.17499996v-1.58749998zm7.40833324 0v1.58749998h3.17499996v-1.58749998zm3.70416662 0v1.58749998h3.17499996v-1.58749998zm3.70416662 0v1.58749998h3.17499996v-1.58749998zm3.70416662 0v1.58749998h3.17499996v-1.58749998zm3.70416662 0v1.58749998h3.17499996v-1.58749998zm-33.33749958 2.11666664v1.58749998h3.17499996v-1.58749998zm3.70416662 0v1.58749998h3.17499996v-1.58749998zm7.40833324 0v1.58749998h3.17499996v-1.58749998zm3.70416662 0v1.58749998h3.1755159v-1.58749998zm7.40833324 0v1.58749998h3.17499996v-1.58749998zm3.70416662 0v1.58749998h3.17499996v-1.58749998zm7.40833324 0v1.58749998h3.17499996v-1.58749998zm3.70416662 0v1.58749998h3.1755159v-1.58749998zm-40.74583282 2.11666664v1.58749998h3.17499996v-1.58749998zm3.70416662 0v1.58749998h3.17499996v-1.58749998zm7.40833324 0v1.58749998h3.17499996v-1.58749998zm3.70416662 0v1.58749998h3.17499996v-1.58749998zm7.40833324 0v1.58749998h3.17499996v-1.58749998zm3.70416662 0v1.58749998h3.17499996v-1.58749998zm7.40833324 0v1.58749998h3.17499996v-1.58749998zm3.70416662 0v1.58749998h3.17499996v-1.58749998zm-37.0416662 2.11666664v1.58749998h3.17499996v-1.58749998zm3.70416662 0v1.58749998h3.17499996v-1.58749998zm3.70416662 0v1.58749998h3.17499996v-1.58749998zm7.40833324 0v1.58749998h3.17499996v-1.58749998zm3.70416662 0v1.58749998h3.1755159v-1.58749998zm3.70416662 0v1.58749998h3.17499996v-1.58749998zm3.70416662 0v1.58749998h3.17499996v-1.58749998zm3.70416662 0v1.58749998h3.17499996v-1.58749998zm7.40833324 0v1.58749998h3.17499996v-1.58749998zm3.70416662 0v1.58749998h3.1755159v-1.58749998zm-37.0416662 2.11666664v1.58749998h3.17499996v-1.58749998zm3.70416662 0v1.58749998h3.17499996v-1.58749998zm3.70416662 0v1.58749998h3.17499996v-1.58749998zm7.40833324 0v1.58749998h3.1755159v-1.58749998zm7.40833324 0v1.58749998h3.17499996v-1.58749998zm3.70416662 0v1.58749998h3.17499996v-1.58749998zm3.70416662 0v1.58749998h3.17499996v-1.58749998zm7.40833324 0v1.58749998h3.1755159v-1.58749998zm-40.74583282 2.11666664v1.58749998h3.17499996v-1.58749998zm11.11249986 0v1.58749998h3.17499996v-1.58749998zm3.70416662 0v1.58749998h3.17499996v-1.58749998zm3.70416662 0v1.58749998h3.1755159v-1.58749998zm3.70416662 0v1.58749998h3.17499996v-1.58749998zm11.11249986 0v1.58749998h3.17499996v-1.58749998zm3.70416662 0v1.58749998h3.17499996v-1.58749998zm3.70416662 0v1.58749998h3.1755159v-1.58749998zm-40.74583282 2.11666664v1.58749998h3.17499996v-1.58749998zm3.70416662 0v1.58749998h3.17499996v-1.58749998zm3.70416662 0v1.58749998h3.17499996v-1.58749998zm3.70416662 0v1.58749998h3.17499996v-1.58749998zm3.70416662 0v1.58749998h3.17499996v-1.58749998zm7.40833324 0v1.58749998h3.17499996v-1.58749998zm3.70416662 0v1.58749998h3.17499996v-1.58749998zm3.70416662 0v1.58749998h3.17499996v-1.58749998zm3.70416662 0v1.58749998h3.17499996v-1.58749998zm3.70416662 0v1.58749998h3.17499996v-1.58749998zm-33.33749958 2.11666664v1.58749998h3.17499996v-1.58749998zm3.70416662 0v1.58749998h3.17499996v-1.58749998zm7.40833324 0v1.58749998h3.17499996v-1.58749998zm3.70416662 0v1.58749998h3.1755159v-1.58749998zm7.40833324 0v1.58749998h3.17499996v-1.58749998zm3.70416662 0v1.58749998h3.17499996v-1.58749998zm7.40833324 0v1.58749998h3.17499996v-1.58749998zm3.70416662 0v1.58749998h3.1755159v-1.58749998zm-40.74583282 2.11666664v1.58749998h3.17499996v-1.58749998zm3.70416662 0v1.58749998h3.17499996v-1.58749998zm7.40833324 0v1.58749998h3.17499996v-1.58749998zm3.70416662 0v1.58749998h3.17499996v-1.58749998zm7.40833324 0v1.58749998h3.17499996v-1.58749998zm3.70416662 0v1.58749998h3.17499996v-1.58749998zm7.40833324 0v1.58749998h3.17499996v-1.58749998zm3.70416662 0v1.58749998h3.17499996v-1.58749998Zm-37.0416662 2.11666664v1.58749998h3.17499996v-1.58749998Zm3.70416662 0v1.58749998h3.17499996v-1.58749998Zm3.70416662 0v1.58749998h3.17499996v-1.58749998Zm7.40833324 0v1.58749998h3.17499996v-1.58749998Zm3.70416662 0v1.58749998h3.1755159v-1.58749998Zm3.70416662 0v1.58749998h3.17499996v-1.58749998Zm3.70416662 0v1.58749998h3.17499996v-1.58749998Zm3.70416662 0v1.58749998h3.17499996v-1.58749998Zm7.40833324 0v1.58749998h3.17499996v-1.58749998Zm3.70416662 0v1.58749998h3.1755159v-1.58749998Zm-37.0416662 2.11666664v1.58749998h3.17499996v-1.58749998zm3.70416662 0v1.58749998h3.17499996v-1.58749998zm3.70416662 0v1.58749998h3.17499996v-1.58749998zm7.40833324 0v1.58749998h3.1755159v-1.58749998zm7.40833324 0v1.58749998h3.17499996v-1.58749998zm3.70416662 0v1.58749998h3.17499996v-1.58749998zm3.70416662 0v1.58749998h3.17499996v-1.58749998zm7.40833324 0v1.58749998h3.1755159v-1.58749998z"/>
  </g>
</svg>
